<mxfile host="app.diagrams.net" modified="2023-04-18T18:15:10.267Z" agent="Mozilla/5.0 (X11; Linux x86_64) AppleWebKit/537.36 (KHTML, like Gecko) Chrome/100.0.4896.60 Safari/537.36" version="21.1.9" etag="1KVk2lJ_UB3XL7cy_WZL" type="github">
  <diagram name="PÃ¡gina-1" id="tgEMLuPIWYL6LfZTbRFQ">
    <mxGraphModel>
      <root>
        <mxCell id="0" />
        <mxCell id="1" parent="0" />
      </root>
    </mxGraphModel>
  </diagram>
</mxfile>
